<svg xmlns="http://www.w3.org/2000/svg" width="1280" height="360" viewBox="0 0 1280 360" role="img" aria-labelledby="title desc">
  <title id="title">ABC4RD Academy</title>
  <desc id="desc">A source-backed research and education center connecting Bitcoin, AI, robotics, digital health, manufacturing, and nanomaterials.</desc>
  <rect width="1280" height="360" fill="#101418"/>
  <path d="M0 270 H1280" stroke="#2f7f74" stroke-width="2"/>
  <path d="M0 90 H1280" stroke="#25313a" stroke-width="2"/>
  <path d="M160 0 V360 M320 0 V360 M480 0 V360 M640 0 V360 M800 0 V360 M960 0 V360 M1120 0 V360" stroke="#1b242b" stroke-width="2"/>
  <rect x="62" y="58" width="174" height="174" rx="18" fill="#f3f6f4"/>
  <path d="M101 177 L149 83 L197 177" fill="none" stroke="#101418" stroke-width="17" stroke-linecap="round" stroke-linejoin="round"/>
  <path d="M122 139 H176" stroke="#2f7f74" stroke-width="15" stroke-linecap="round"/>
  <path d="M86 211 H212" stroke="#101418" stroke-width="13" stroke-linecap="round"/>
  <text x="286" y="122" fill="#f3f6f4" font-family="Segoe UI, Arial, sans-serif" font-size="58" font-weight="700">ABC4RD Academy</text>
  <text x="288" y="172" fill="#b8c7c2" font-family="Segoe UI, Arial, sans-serif" font-size="24">Source-backed research and education for open technological literacy</text>
  <g font-family="Segoe UI, Arial, sans-serif" font-size="22" font-weight="600">
    <rect x="286" y="214" width="112" height="42" rx="8" fill="#2f7f74"/>
    <text x="312" y="243" fill="#f3f6f4">Bitcoin</text>
    <rect x="416" y="214" width="72" height="42" rx="8" fill="#d0a13a"/>
    <text x="441" y="243" fill="#101418">AI</text>
    <rect x="506" y="214" width="136" height="42" rx="8" fill="#6f8fb5"/>
    <text x="529" y="243" fill="#101418">Robotics</text>
    <rect x="660" y="214" width="182" height="42" rx="8" fill="#c7d1d8"/>
    <text x="685" y="243" fill="#101418">Digital Health</text>
    <rect x="860" y="214" width="188" height="42" rx="8" fill="#b8846f"/>
    <text x="883" y="243" fill="#101418">Manufacturing</text>
    <rect x="1066" y="214" width="168" height="42" rx="8" fill="#8fbf9f"/>
    <text x="1090" y="243" fill="#101418">Materials</text>
  </g>
  <text x="288" y="305" fill="#8fa19b" font-family="Segoe UI, Arial, sans-serif" font-size="20">Flagship: LLMAIX2001a · Runnable labs · Verified sources · Public contribution ladder</text>
</svg>
